<svg width="28" height="28" viewBox="0 0 28 28" fill="none" xmlns="http://www.w3.org/2000/svg">
<path d="M16.3327 24.5003V21.0003C16.3327 20.3815 16.0868 19.788 15.6493 19.3504C15.2117 18.9128 14.6182 18.667 13.9993 18.667C13.3805 18.667 12.787 18.9128 12.3494 19.3504C11.9118 19.788 11.666 20.3815 11.666 21.0003V24.5003" stroke="#1D9883" stroke-width="2.33333" stroke-linecap="round" stroke-linejoin="round"/>
<path d="M21 5.83301V24.4997" stroke="#1D9883" stroke-width="2.33333" stroke-linecap="round" stroke-linejoin="round"/>
<path d="M4.66602 6.99979L12.9563 2.57812C13.2802 2.41628 13.6373 2.33203 13.9993 2.33203C14.3614 2.33203 14.7185 2.41628 15.0423 2.57812L23.3327 6.99979" stroke="#1D9883" stroke-width="2.33333" stroke-linecap="round" stroke-linejoin="round"/>
<path d="M7.00065 12.833L2.89398 15.3378C2.72301 15.4419 2.5817 15.5882 2.48362 15.7627C2.38555 15.9372 2.33402 16.134 2.33398 16.3342V22.1663C2.33398 22.7852 2.57982 23.3787 3.0174 23.8163C3.45499 24.2538 4.04848 24.4997 4.66732 24.4997H23.334C23.9528 24.4997 24.5463 24.2538 24.9839 23.8163C25.4215 23.3787 25.6673 22.7852 25.6673 22.1663V16.333C25.6671 16.133 25.6155 15.9365 25.5174 15.7622C25.4193 15.588 25.2781 15.4418 25.1073 15.3378L21.0007 12.833" stroke="#1D9883" stroke-width="2.33333" stroke-linecap="round" stroke-linejoin="round"/>
<path d="M7 5.83301V24.4997" stroke="#1D9883" stroke-width="2.33333" stroke-linecap="round" stroke-linejoin="round"/>
<path d="M13.9993 12.8337C15.288 12.8337 16.3327 11.789 16.3327 10.5003C16.3327 9.21166 15.288 8.16699 13.9993 8.16699C12.7107 8.16699 11.666 9.21166 11.666 10.5003C11.666 11.789 12.7107 12.8337 13.9993 12.8337Z" stroke="#1D9883" stroke-width="2.33333" stroke-linecap="round" stroke-linejoin="round"/>
</svg>
