<svg width="28" height="28" viewBox="0 0 28 28" fill="none" xmlns="http://www.w3.org/2000/svg">
<path d="M14.0007 25.6663C10.9065 25.6663 7.939 24.4372 5.75107 22.2493C3.56315 20.0613 2.33398 17.0939 2.33398 13.9997C2.33398 10.9055 3.56315 7.93802 5.75107 5.7501C7.939 3.56217 10.9065 2.33301 14.0007 2.33301C17.0948 2.33301 20.0623 3.43925 22.2502 5.40839C24.4382 7.37752 25.6673 10.0482 25.6673 12.833C25.6673 14.3801 25.0527 15.8638 23.9588 16.9578C22.8648 18.0518 21.3811 18.6663 19.834 18.6663H17.209C16.8298 18.6663 16.4582 18.7719 16.1356 18.9713C15.8131 19.1706 15.5524 19.4558 15.3829 19.7949C15.2133 20.1341 15.1415 20.5137 15.1756 20.8914C15.2096 21.269 15.3482 21.6297 15.5757 21.933L15.9257 22.3997C16.1531 22.703 16.2917 23.0637 16.3257 23.4413C16.3598 23.819 16.288 24.1986 16.1184 24.5377C15.9489 24.8769 15.6882 25.1621 15.3657 25.3614C15.0432 25.5608 14.6715 25.6663 14.2923 25.6663H14.0007Z" stroke="#1D9883" stroke-width="2.33333" stroke-linecap="round" stroke-linejoin="round"/>
<path d="M15.7493 8.16667C16.0715 8.16667 16.3327 7.9055 16.3327 7.58333C16.3327 7.26117 16.0715 7 15.7493 7C15.4272 7 15.166 7.26117 15.166 7.58333C15.166 7.9055 15.4272 8.16667 15.7493 8.16667Z" fill="#1D9883" stroke="#1D9883" stroke-width="2.33333" stroke-linecap="round" stroke-linejoin="round"/>
<path d="M20.4173 12.8337C20.7395 12.8337 21.0007 12.5725 21.0007 12.2503C21.0007 11.9282 20.7395 11.667 20.4173 11.667C20.0952 11.667 19.834 11.9282 19.834 12.2503C19.834 12.5725 20.0952 12.8337 20.4173 12.8337Z" fill="#1D9883" stroke="#1D9883" stroke-width="2.33333" stroke-linecap="round" stroke-linejoin="round"/>
<path d="M7.58333 15.1667C7.9055 15.1667 8.16667 14.9055 8.16667 14.5833C8.16667 14.2612 7.9055 14 7.58333 14C7.26117 14 7 14.2612 7 14.5833C7 14.9055 7.26117 15.1667 7.58333 15.1667Z" fill="#1D9883" stroke="#1D9883" stroke-width="2.33333" stroke-linecap="round" stroke-linejoin="round"/>
<path d="M9.91732 9.33366C10.2395 9.33366 10.5007 9.07249 10.5007 8.75033C10.5007 8.42816 10.2395 8.16699 9.91732 8.16699C9.59515 8.16699 9.33398 8.42816 9.33398 8.75033C9.33398 9.07249 9.59515 9.33366 9.91732 9.33366Z" fill="#1D9883" stroke="#1D9883" stroke-width="2.33333" stroke-linecap="round" stroke-linejoin="round"/>
</svg>
