<svg width="28" height="28" viewBox="0 0 28 28" fill="none" xmlns="http://www.w3.org/2000/svg">
<path d="M11.666 14H16.3327" stroke="#1D9883" stroke-width="2.33333" stroke-linecap="round" stroke-linejoin="round"/>
<path d="M11.666 9.33301H16.3327" stroke="#1D9883" stroke-width="2.33333" stroke-linecap="round" stroke-linejoin="round"/>
<path d="M16.3327 24.5003V21.0003C16.3327 20.3815 16.0868 19.788 15.6493 19.3504C15.2117 18.9128 14.6182 18.667 13.9993 18.667C13.3805 18.667 12.787 18.9128 12.3494 19.3504C11.9118 19.788 11.666 20.3815 11.666 21.0003V24.5003" stroke="#1D9883" stroke-width="2.33333" stroke-linecap="round" stroke-linejoin="round"/>
<path d="M7.00065 11.667H4.66732C4.04848 11.667 3.45499 11.9128 3.0174 12.3504C2.57982 12.788 2.33398 13.3815 2.33398 14.0003V22.167C2.33398 22.7858 2.57982 23.3793 3.0174 23.8169C3.45499 24.2545 4.04848 24.5003 4.66732 24.5003H23.334C23.9528 24.5003 24.5463 24.2545 24.9839 23.8169C25.4215 23.3793 25.6673 22.7858 25.6673 22.167V10.5003C25.6673 9.88149 25.4215 9.28799 24.9839 8.85041C24.5463 8.41282 23.9528 8.16699 23.334 8.16699H21.0007" stroke="#1D9883" stroke-width="2.33333" stroke-linecap="round" stroke-linejoin="round"/>
<path d="M7 24.5V5.83333C7 5.21449 7.24583 4.621 7.68342 4.18342C8.121 3.74583 8.71449 3.5 9.33333 3.5H18.6667C19.2855 3.5 19.879 3.74583 20.3166 4.18342C20.7542 4.621 21 5.21449 21 5.83333V24.5" stroke="#1D9883" stroke-width="2.33333" stroke-linecap="round" stroke-linejoin="round"/>
</svg>
