<svg width="28" height="28" viewBox="0 0 28 28" fill="none" xmlns="http://www.w3.org/2000/svg">
<path d="M18.6673 23.333V4.66634C18.6673 4.0475 18.4215 3.45401 17.9839 3.01643C17.5463 2.57884 16.9528 2.33301 16.334 2.33301H11.6673C11.0485 2.33301 10.455 2.57884 10.0174 3.01643C9.57982 3.45401 9.33398 4.0475 9.33398 4.66634V23.333" stroke="#1D9883" stroke-width="2.33333" stroke-linecap="round" stroke-linejoin="round"/>
<path d="M23.334 7H4.66732C3.37865 7 2.33398 8.04467 2.33398 9.33333V21C2.33398 22.2887 3.37865 23.3333 4.66732 23.3333H23.334C24.6227 23.3333 25.6673 22.2887 25.6673 21V9.33333C25.6673 8.04467 24.6227 7 23.334 7Z" stroke="#1D9883" stroke-width="2.33333" stroke-linecap="round" stroke-linejoin="round"/>
</svg>
