<svg width="32" height="32" viewBox="0 0 32 32" fill="none" xmlns="http://www.w3.org/2000/svg">
<path d="M13.333 2.66699V12.703C13.3334 13.1177 13.2371 13.5267 13.0517 13.8977L6.29304 27.4003C6.19024 27.6043 6.14157 27.8313 6.1517 28.0595C6.16183 28.2877 6.23041 28.5094 6.35087 28.7035C6.47133 28.8976 6.63963 29.0575 6.83963 29.1678C7.03963 29.2781 7.26462 29.3353 7.49304 29.3337H24.5064C24.7348 29.3353 24.9598 29.2781 25.1598 29.1678C25.3598 29.0575 25.5281 28.8976 25.6485 28.7035C25.769 28.5094 25.8376 28.2877 25.8477 28.0595C25.8578 27.8313 25.8092 27.6043 25.7064 27.4003L18.9477 13.8977C18.7623 13.5267 18.666 13.1177 18.6664 12.703V2.66699" stroke="#1D9883" stroke-width="2.66667" stroke-linecap="round" stroke-linejoin="round"/>
<path d="M11.333 2.66699H20.6663" stroke="#1D9883" stroke-width="2.66667" stroke-linecap="round" stroke-linejoin="round"/>
<path d="M9.33301 21.333H22.6663" stroke="#1D9883" stroke-width="2.66667" stroke-linecap="round" stroke-linejoin="round"/>
</svg>
