<svg width="32" height="32" viewBox="0 0 32 32" fill="none" xmlns="http://www.w3.org/2000/svg">
<path d="M24 24C26.2091 24 28 22.2091 28 20C28 17.7909 26.2091 16 24 16C21.7909 16 20 17.7909 20 20C20 22.2091 21.7909 24 24 24Z" stroke="#1D9883" stroke-width="2.66667" stroke-linecap="round" stroke-linejoin="round"/>
<path d="M12.0003 14.6667C14.9458 14.6667 17.3337 12.2789 17.3337 9.33333C17.3337 6.38781 14.9458 4 12.0003 4C9.05481 4 6.66699 6.38781 6.66699 9.33333C6.66699 12.2789 9.05481 14.6667 12.0003 14.6667Z" stroke="#1D9883" stroke-width="2.66667" stroke-linecap="round" stroke-linejoin="round"/>
<path d="M13.3337 20H8.00033C6.58584 20 5.22928 20.5619 4.22909 21.5621C3.2289 22.5623 2.66699 23.9188 2.66699 25.3333V28" stroke="#1D9883" stroke-width="2.66667" stroke-linecap="round" stroke-linejoin="round"/>
<path d="M28.9333 21.8666L27.7333 21.4666" stroke="#1D9883" stroke-width="2.66667" stroke-linecap="round" stroke-linejoin="round"/>
<path d="M20.2664 18.5338L19.0664 18.1338" stroke="#1D9883" stroke-width="2.66667" stroke-linecap="round" stroke-linejoin="round"/>
<path d="M22.1338 24.9334L22.5338 23.7334" stroke="#1D9883" stroke-width="2.66667" stroke-linecap="round" stroke-linejoin="round"/>
<path d="M25.4667 16.2664L25.8667 15.0664" stroke="#1D9883" stroke-width="2.66667" stroke-linecap="round" stroke-linejoin="round"/>
<path d="M26.1329 24.9329L25.5996 23.5996" stroke="#1D9883" stroke-width="2.66667" stroke-linecap="round" stroke-linejoin="round"/>
<path d="M22.3995 16.3997L21.8662 15.0664" stroke="#1D9883" stroke-width="2.66667" stroke-linecap="round" stroke-linejoin="round"/>
<path d="M19.0664 22.1329L20.3997 21.5996" stroke="#1D9883" stroke-width="2.66667" stroke-linecap="round" stroke-linejoin="round"/>
<path d="M27.5996 18.3995L28.9329 17.8662" stroke="#1D9883" stroke-width="2.66667" stroke-linecap="round" stroke-linejoin="round"/>
</svg>
