<svg width="28" height="28" viewBox="0 0 28 28" fill="none" xmlns="http://www.w3.org/2000/svg">
<path d="M14 3.5V24.5" stroke="#1D9883" stroke-width="2.33333" stroke-linecap="round" stroke-linejoin="round"/>
<path d="M22.166 9.33366L25.666 18.667C24.6563 19.4243 23.4282 19.8337 22.166 19.8337C20.9039 19.8337 19.6757 19.4243 18.666 18.667L22.166 9.33366ZM22.166 9.33366V8.16699" stroke="#1D9883" stroke-width="2.33333" stroke-linecap="round" stroke-linejoin="round"/>
<path d="M3.5 8.16634H4.66667C7.92213 8.16634 11.1275 7.36499 14 5.83301C16.8725 7.36499 20.0779 8.16634 23.3333 8.16634H24.5" stroke="#1D9883" stroke-width="2.33333" stroke-linecap="round" stroke-linejoin="round"/>
<path d="M5.83398 9.33366L9.33398 18.667C8.32426 19.4243 7.09614 19.8337 5.83398 19.8337C4.57182 19.8337 3.34371 19.4243 2.33398 18.667L5.83398 9.33366ZM5.83398 9.33366V8.16699" stroke="#1D9883" stroke-width="2.33333" stroke-linecap="round" stroke-linejoin="round"/>
<path d="M8.16602 24.5H19.8327" stroke="#1D9883" stroke-width="2.33333" stroke-linecap="round" stroke-linejoin="round"/>
</svg>
