<svg width="106" height="24" viewBox="0 0 106 24" fill="none" xmlns="http://www.w3.org/2000/svg">
<circle cx="58.4234" cy="4.316" r="2.1578" fill="#082B25"/>
<path d="M71.6281 2.32959C73.0257 2.32959 74.313 2.57761 75.49 3.07366C76.6915 3.5449 77.7214 4.21456 78.5796 5.08264C79.4623 5.92592 80.1366 6.94281 80.6025 8.13332C81.0929 9.32383 81.3381 10.6259 81.3381 12.0397C81.3381 13.4534 81.0929 14.7555 80.6025 15.946C80.1366 17.1365 79.4623 18.1658 78.5796 19.0339C77.7214 19.8772 76.6915 20.5469 75.49 21.0429C74.313 21.5141 73.0257 21.7498 71.6281 21.7498C70.2304 21.7498 68.9308 21.5141 67.7293 21.0429C66.5523 20.5469 65.5225 19.8772 64.6397 19.0339C63.7815 18.1658 63.1072 17.1365 62.6168 15.946C62.1509 14.7555 61.918 13.4534 61.918 12.0397C61.918 10.6259 62.1509 9.32383 62.6168 8.13332C63.1072 6.94281 63.7815 5.92592 64.6397 5.08264C65.5225 4.21456 66.5523 3.5449 67.7293 3.07366C68.9308 2.57761 70.2304 2.32959 71.6281 2.32959ZM71.6281 16.5413C72.192 16.5413 72.7192 16.4421 73.2096 16.2437C73.7245 16.0204 74.1782 15.7228 74.5705 15.3508C74.9628 14.9539 75.2693 14.4827 75.49 13.937C75.7107 13.3666 75.821 12.7341 75.821 12.0397C75.821 11.3452 75.7107 10.7252 75.49 10.1795C75.2693 9.63386 74.9628 9.16261 74.5705 8.76578C74.1782 8.36894 73.7245 8.07131 73.2096 7.8729C72.7192 7.64968 72.192 7.53806 71.6281 7.53806C71.0641 7.53806 70.5246 7.64968 70.0097 7.8729C69.5193 8.07131 69.0779 8.36894 68.6856 8.76578C68.2933 9.16261 67.9868 9.63386 67.7661 10.1795C67.5454 10.7252 67.4351 11.3452 67.4351 12.0397C67.4351 12.7341 67.5454 13.3666 67.7661 13.937C67.9868 14.4827 68.2933 14.9539 68.6856 15.3508C69.0779 15.7228 69.5193 16.0204 70.0097 16.2437C70.5246 16.4421 71.0641 16.5413 71.6281 16.5413Z" fill="#082B25"/>
<path d="M39.8223 2.17978C39.8223 2.16786 39.8319 2.1582 39.8438 2.1582H47.1179C48.1627 2.1582 49.0994 2.32022 49.928 2.64425C50.7566 2.95028 51.4502 3.38232 52.0086 3.94037C52.585 4.49843 53.0174 5.16449 53.3056 5.93857C53.6118 6.69464 53.765 7.52272 53.765 8.42281C53.765 9.05287 53.6569 9.63792 53.4407 10.178C53.2426 10.718 52.9633 11.2221 52.6031 11.6901C52.2608 12.1402 51.8555 12.5452 51.3871 12.9052C50.9225 13.2445 50.4225 13.5307 49.887 13.7637C49.8791 13.7671 49.874 13.7749 49.874 13.7835V14.0057C49.874 14.01 49.8753 14.0142 49.8777 14.0178L54.9041 21.4584C54.9138 21.4727 54.9035 21.4921 54.8862 21.4921H50.1284C50.1213 21.4921 50.1148 21.4886 50.1107 21.4829L45.2329 14.5346C45.2288 14.5288 45.2222 14.5254 45.2152 14.5254H44.0591C44.0472 14.5254 44.0375 14.5351 44.0375 14.547V21.4705C44.0375 21.4824 44.0278 21.4921 44.0159 21.4921H39.8438C39.8319 21.4921 39.8223 21.4824 39.8223 21.4705V2.17978ZM47.1179 10.637C47.8744 10.637 48.4689 10.421 48.9012 9.98896C49.3336 9.53891 49.5497 8.98986 49.5497 8.3418C49.5497 7.69374 49.3426 7.15368 48.9282 6.72164C48.5319 6.2716 47.9285 6.04658 47.1179 6.04658H44.0591C44.0472 6.04658 44.0375 6.05624 44.0375 6.06815V10.6154C44.0375 10.6274 44.0472 10.637 44.0591 10.637H47.1179Z" fill="#082B25"/>
<path d="M26.7548 2.1582H22.5605V21.4921H26.7548C26.7668 21.4921 26.7764 21.4824 26.7764 21.4705V15.7675L28.6141 13.6343L34.1272 21.4921H39.2208C39.2382 21.4921 39.2484 21.4725 39.2386 21.4582L31.5328 10.286L38.4172 2.19376C38.4291 2.17975 38.4192 2.1582 38.4008 2.1582H33.4245L27.0467 9.61092H26.7764V2.17978C26.7764 2.16786 26.7668 2.1582 26.7548 2.1582Z" fill="#082B25"/>
<path d="M14.1077 2.91641C12.3501 2.26215 10.4402 2.13327 8.61062 2.54546C6.78108 2.95765 5.11093 3.89311 3.80372 5.23785C2.4965 6.58259 1.60866 8.27853 1.2484 10.119C0.888138 11.9595 1.07101 13.865 1.77472 15.6034C2.47844 17.3417 3.67261 18.8379 5.21171 19.9095C6.75082 20.981 8.56839 21.5818 10.4429 21.6385C12.3175 21.6952 14.168 21.2055 15.7691 20.2289C17.3702 19.2523 18.6526 17.8311 19.4602 16.1385L15.1029 14.0597C14.6987 14.907 14.0567 15.6185 13.2552 16.1073C12.4537 16.5962 11.5273 16.8414 10.5889 16.813C9.65056 16.7846 8.74069 16.4839 7.97023 15.9474C7.19976 15.411 6.60197 14.6621 6.2497 13.7918C5.89742 12.9216 5.80588 11.9677 5.98623 11.0464C6.16657 10.1251 6.61101 9.2761 7.2654 8.60294C7.91978 7.92977 8.75584 7.46149 9.6717 7.25515C10.5876 7.04881 11.5437 7.11333 12.4235 7.44084L14.1077 2.91641Z" fill="#167868"/>
<path d="M19.9413 9.02673C19.7188 8.33195 19.4182 7.6646 19.0455 7.03742L14.8953 9.50379C15.0819 9.81775 15.2323 10.1518 15.3438 10.4996L19.9413 9.02673Z" fill="#9CCC3A"/>
<path d="M20.4022 11.976C20.4022 11.2464 20.3196 10.5192 20.156 9.80823L15.4512 10.8908C15.5331 11.2468 15.5745 11.6108 15.5745 11.976H20.4022Z" fill="#EF1923"/>
<path d="M19.9145 15.0078C20.1433 14.3151 20.293 13.5986 20.3606 12.8722L15.5536 12.4246C15.5198 12.7883 15.4449 13.1469 15.3303 13.4937L19.9145 15.0078Z" fill="#FECC00"/>
<path d="M18.7208 6.52804C18.3097 5.92537 17.8316 5.37118 17.2958 4.87605L14.0194 8.42183C14.2877 8.66968 14.527 8.94711 14.7328 9.2488L18.7208 6.52804Z" fill="#00A3D4"/>
<path d="M16.7599 4.41603C16.1894 3.96135 15.5692 3.57272 14.9112 3.25756L12.8257 7.61162C13.1551 7.76939 13.4656 7.96393 13.7512 8.19154L16.7599 4.41603Z" fill="#F56421"/>
<path d="M82.9785 2.1582H87.8204L94.7605 14.0401H95.0295L94.7605 10.3303V2.1582H98.8815C98.8934 2.1582 98.9031 2.16786 98.9031 2.17978V21.3842C98.9031 21.3961 98.8934 21.4058 98.8815 21.4058H94.4915L87.121 8.82495H86.8521L87.121 12.5347V21.4058H82.9785V2.1582Z" fill="#082B25"/>
<path d="M60.5791 21.4946H56.2637V5.95557C57.0797 7.74933 59.6015 7.82001 60.5166 6.07471L60.5791 5.95557V21.4946Z" fill="#082B25"/>
</svg>
