<svg width="32" height="32" viewBox="0 0 32 32" fill="none" xmlns="http://www.w3.org/2000/svg">
<path d="M21.3337 26.667V5.33366C21.3337 4.62641 21.0527 3.94814 20.5526 3.44804C20.0525 2.94794 19.3742 2.66699 18.667 2.66699H13.3337C12.6264 2.66699 11.9481 2.94794 11.448 3.44804C10.9479 3.94814 10.667 4.62641 10.667 5.33366V26.667" stroke="#1D9883" stroke-width="2.66667" stroke-linecap="round" stroke-linejoin="round"/>
<path d="M26.667 8H5.33366C3.8609 8 2.66699 9.19391 2.66699 10.6667V24C2.66699 25.4728 3.8609 26.6667 5.33366 26.6667H26.667C28.1398 26.6667 29.3337 25.4728 29.3337 24V10.6667C29.3337 9.19391 28.1398 8 26.667 8Z" stroke="#1D9883" stroke-width="2.66667" stroke-linecap="round" stroke-linejoin="round"/>
</svg>
