<svg width="28" height="28" viewBox="0 0 28 28" fill="none" xmlns="http://www.w3.org/2000/svg">
<path d="M4.66732 10.4997C4.04848 10.4997 3.45499 10.7455 3.0174 11.1831C2.57982 11.6207 2.33398 12.2142 2.33398 12.833V15.1663C2.33398 15.7852 2.57982 16.3787 3.0174 16.8163C3.45499 17.2538 4.04848 17.4997 4.66732 17.4997H9.33398C9.6434 17.4997 9.94015 17.6226 10.1589 17.8414C10.3777 18.0602 10.5007 18.3569 10.5007 18.6663V23.333C10.5007 23.9518 10.7465 24.5453 11.1841 24.9829C11.6217 25.4205 12.2151 25.6663 12.834 25.6663H15.1673C15.7862 25.6663 16.3796 25.4205 16.8172 24.9829C17.2548 24.5453 17.5007 23.9518 17.5007 23.333V18.6663C17.5007 18.3569 17.6236 18.0602 17.8424 17.8414C18.0612 17.6226 18.3579 17.4997 18.6673 17.4997H23.334C23.9528 17.4997 24.5463 17.2538 24.9839 16.8163C25.4215 16.3787 25.6673 15.7852 25.6673 15.1663V12.833C25.6673 12.2142 25.4215 11.6207 24.9839 11.1831C24.5463 10.7455 23.9528 10.4997 23.334 10.4997H18.6673C18.3579 10.4997 18.0612 10.3768 17.8424 10.158C17.6236 9.93917 17.5007 9.64243 17.5007 9.33301V4.66634C17.5007 4.0475 17.2548 3.45401 16.8172 3.01643C16.3796 2.57884 15.7862 2.33301 15.1673 2.33301H12.834C12.2151 2.33301 11.6217 2.57884 11.1841 3.01643C10.7465 3.45401 10.5007 4.0475 10.5007 4.66634V9.33301C10.5007 9.64243 10.3777 9.93917 10.1589 10.158C9.94015 10.3768 9.6434 10.4997 9.33398 10.4997H4.66732Z" stroke="#1D9883" stroke-width="2.33333" stroke-linecap="round" stroke-linejoin="round"/>
</svg>
