<svg width="28" height="28" viewBox="0 0 28 28" fill="none" xmlns="http://www.w3.org/2000/svg">
<path d="M12.8327 11.9815L8.16602 3.89648" stroke="#1D9883" stroke-width="2.33333" stroke-linecap="round" stroke-linejoin="round"/>
<path d="M12.8327 16.0186L8.16602 24.1036" stroke="#1D9883" stroke-width="2.33333" stroke-linecap="round" stroke-linejoin="round"/>
<path d="M14 25.6663V23.333" stroke="#1D9883" stroke-width="2.33333" stroke-linecap="round" stroke-linejoin="round"/>
<path d="M14 2.33301V4.66634" stroke="#1D9883" stroke-width="2.33333" stroke-linecap="round" stroke-linejoin="round"/>
<path d="M16.334 14H25.6673" stroke="#1D9883" stroke-width="2.33333" stroke-linecap="round" stroke-linejoin="round"/>
<path d="M19.8327 24.1033L18.666 22.085" stroke="#1D9883" stroke-width="2.33333" stroke-linecap="round" stroke-linejoin="round"/>
<path d="M19.8327 3.89648L18.666 5.91482" stroke="#1D9883" stroke-width="2.33333" stroke-linecap="round" stroke-linejoin="round"/>
<path d="M2.33398 14H4.66732" stroke="#1D9883" stroke-width="2.33333" stroke-linecap="round" stroke-linejoin="round"/>
<path d="M24.1043 19.8337L22.0859 18.667" stroke="#1D9883" stroke-width="2.33333" stroke-linecap="round" stroke-linejoin="round"/>
<path d="M24.1043 8.16699L22.0859 9.33366" stroke="#1D9883" stroke-width="2.33333" stroke-linecap="round" stroke-linejoin="round"/>
<path d="M3.89648 19.8337L5.91482 18.667" stroke="#1D9883" stroke-width="2.33333" stroke-linecap="round" stroke-linejoin="round"/>
<path d="M3.89648 8.16699L5.91482 9.33366" stroke="#1D9883" stroke-width="2.33333" stroke-linecap="round" stroke-linejoin="round"/>
<path d="M13.9993 16.3337C15.288 16.3337 16.3327 15.289 16.3327 14.0003C16.3327 12.7117 15.288 11.667 13.9993 11.667C12.7107 11.667 11.666 12.7117 11.666 14.0003C11.666 15.289 12.7107 16.3337 13.9993 16.3337Z" stroke="#1D9883" stroke-width="2.33333" stroke-linecap="round" stroke-linejoin="round"/>
<path d="M13.9993 23.3337C19.154 23.3337 23.3327 19.155 23.3327 14.0003C23.3327 8.84567 19.154 4.66699 13.9993 4.66699C8.84469 4.66699 4.66602 8.84567 4.66602 14.0003C4.66602 19.155 8.84469 23.3337 13.9993 23.3337Z" stroke="#1D9883" stroke-width="2.33333" stroke-linecap="round" stroke-linejoin="round"/>
</svg>
