<svg width="32" height="32" viewBox="0 0 32 32" fill="none" xmlns="http://www.w3.org/2000/svg">
<path d="M21.3337 28V25.3333C21.3337 23.9188 20.7718 22.5623 19.7716 21.5621C18.7714 20.5619 17.4148 20 16.0003 20H8.00033C6.58584 20 5.22928 20.5619 4.22909 21.5621C3.2289 22.5623 2.66699 23.9188 2.66699 25.3333V28" stroke="#1D9883" stroke-width="2.66667" stroke-linecap="round" stroke-linejoin="round"/>
<path d="M12.0003 14.6667C14.9458 14.6667 17.3337 12.2789 17.3337 9.33333C17.3337 6.38781 14.9458 4 12.0003 4C9.05481 4 6.66699 6.38781 6.66699 9.33333C6.66699 12.2789 9.05481 14.6667 12.0003 14.6667Z" stroke="#1D9883" stroke-width="2.66667" stroke-linecap="round" stroke-linejoin="round"/>
<path d="M29.334 27.9995V25.3329C29.3331 24.1512 28.9398 23.0032 28.2158 22.0693C27.4918 21.1353 26.4782 20.4683 25.334 20.1729" stroke="#1D9883" stroke-width="2.66667" stroke-linecap="round" stroke-linejoin="round"/>
<path d="M21.333 4.17285C22.4802 4.46659 23.4971 5.13379 24.2232 6.06927C24.9493 7.00474 25.3435 8.15529 25.3435 9.33952C25.3435 10.5237 24.9493 11.6743 24.2232 12.6098C23.4971 13.5452 22.4802 14.2125 21.333 14.5062" stroke="#1D9883" stroke-width="2.66667" stroke-linecap="round" stroke-linejoin="round"/>
</svg>
