<svg width="28" height="28" viewBox="0 0 28 28" fill="none" xmlns="http://www.w3.org/2000/svg">
<path d="M24.9893 12.7424C25.1981 12.6503 25.3754 12.4989 25.499 12.307C25.6227 12.1152 25.6873 11.8912 25.685 11.663C25.6826 11.4347 25.6134 11.2121 25.4858 11.0229C25.3581 10.8336 25.1778 10.6859 24.9671 10.5981L14.9676 6.04342C14.6636 5.90476 14.3334 5.83301 13.9993 5.83301C13.6652 5.83301 13.3349 5.90476 13.0309 6.04342L3.03261 10.5934C2.82491 10.6844 2.64821 10.8339 2.52414 11.0237C2.40006 11.2135 2.33398 11.4353 2.33398 11.6621C2.33398 11.8888 2.40006 12.1107 2.52414 12.3005C2.64821 12.4903 2.82491 12.6398 3.03261 12.7308L13.0309 17.2901C13.3349 17.4288 13.6652 17.5005 13.9993 17.5005C14.3334 17.5005 14.6636 17.4288 14.9676 17.2901L24.9893 12.7424Z" stroke="#1D9883" stroke-width="2.33333" stroke-linecap="round" stroke-linejoin="round"/>
<path d="M25.666 11.667V18.667" stroke="#1D9883" stroke-width="2.33333" stroke-linecap="round" stroke-linejoin="round"/>
<path d="M7 14.583V18.6663C7 19.5946 7.7375 20.4848 9.05025 21.1412C10.363 21.7976 12.1435 22.1663 14 22.1663C15.8565 22.1663 17.637 21.7976 18.9497 21.1412C20.2625 20.4848 21 19.5946 21 18.6663V14.583" stroke="#1D9883" stroke-width="2.33333" stroke-linecap="round" stroke-linejoin="round"/>
</svg>
